<svg xmlns="http://www.w3.org/2000/svg" width="56" height="56"><path fill="#006231" d="M0 0h56v56H0z"/><path fill="#fff" d="M41.95 14c.03 0 .05.02.05.05v27.87c0 .05-.03.08-.08.08H14.07c-.05 0-.07-.02-.07-.07V36.1c0-.08.04-.11.11-.1 1.64.32 3 .57 4.11.75.91.15 2 .25 3.25.31 2.05.1 4.1-.08 6.17-.53 2.24-.5 4.22-1.38 5.94-2.67 1.8-1.33 3.16-3 4.1-4.98a7 7 0 0 0 .4-1.14h-.03a21 21 0 0 1-4.11 2.83 16.8 16.8 0 0 1-9.02 1.9h-.1a30 30 0 0 1-1.85-.18 88 88 0 0 1-6.65-1.31l-2.29-.51c-.02 0-.03-.02-.03-.04v-1.7c0-.04.02-.07.06-.07 1.8-.36 3.77-.34 5.93.05l1.16.22c1.2.22 2.08.38 2.65.47.9.14 1.77.23 2.58.28 1.97.13 3.9-.05 5.8-.52a12.1 12.1 0 0 0 4.54-2.19 10.8 10.8 0 0 0 3.5-4.78c0-.02 0-.03-.02-.04h-.04a15.3 15.3 0 0 1-7.05 3.6c-.7.15-1.55.23-2.56.24a21.8 21.8 0 0 1-4.83-.53l-2.37-.53c-1.77-.4-3.12-.68-4.04-.84a7.72 7.72 0 0 0-5.29.72.04.04 0 0 1-.02-.04V14.04c0-.03.02-.04.04-.04zm-.88 4.54c-.93.82-1.95 1.46-3.07 1.93-1.81.77-3.95.91-6.43.44l-2.15-.46a66 66 0 0 0-2.89-.6 5.46 5.46 0 0 0-2.83.2c-.9.32-1.63.9-2.21 1.71a6 6 0 0 0-.9 1.99h.04c1.87-.8 3.77-1.07 5.7-.8a71 71 0 0 1 3.7.63c1.12.18 2.23.23 3.32.16 1.16-.09 2.22-.31 3.2-.69a7.6 7.6 0 0 0 4.59-4.46c0-.02 0-.04-.02-.05z"/></svg>